<svg xmlns="http://www.w3.org/2000/svg" style="display:none">
  <symbol id="ic-doc" viewBox="0 0 24 24">
      <path d="M6 2h8l4 4v16H6z" />
      <path d="M14 2v4h4" />
    </symbol>
  <symbol id="ic-shield" viewBox="0 0 24 24">
      <path d="M12 2l8 3.5V11c0 5.2-3.4 8.7-8 9.5-4.6-.8-8-4.3-8-9.5V5.5z" />
      <path d="M9 12l2 2 4-4" />
    </symbol>
  <symbol id="ic-check" viewBox="0 0 24 24">
      <circle cx="12" cy="12" r="9.2" />
      <path d="M8 12.5l2.5 2.5L16 9.5" />
    </symbol>
  <symbol id="ic-brief" viewBox="0 0 24 24">
      <path d="M3 6h18v13H3z" />
      <path d="M3 6l9 7 9-7" />
    </symbol>
  <symbol id="ic-rechnung" viewBox="0 0 24 24">
      <path d="M6 2h12v20l-3-2-3 2-3-2-3 2z" />
      <path d="M9 8h6M9 12h6M9 16h3" />
    </symbol>
  <symbol id="ic-postkarte" viewBox="0 0 24 24">
      <path d="M2 5h20v14H2z" />
      <path d="M13 5v14" />
      <path d="M15.5 8h4v4h-4z" />
      <path d="M4 15h6" />
    </symbol>
  <symbol id="ic-foto" viewBox="0 0 24 24">
      <path d="M2 4h20v16H2z" />
      <path d="M2 16l6-6 4 4 4-5 6 7" />
      <circle cx="8" cy="9" r="1.4" />
    </symbol>
  <symbol id="ic-formular" viewBox="0 0 24 24">
      <path d="M5 2h14v20H5z" />
      <path d="M8 6.5l1 1 2-2" />
      <path d="M13 7h4" />
      <path d="M8 12l1 1 2-2" />
      <path d="M13 12.5h4" />
      <path d="M8 17.5l1 1 2-2" />
      <path d="M13 18h4" />
    </symbol>
  <symbol id="ic-gear" viewBox="0 0 24 24">
      <circle cx="12" cy="12" r="4" />
      <path d="M12 2v3M12 19v3M2 12h3M19 12h3M4.5 4.5l2 2M17.5 17.5l2 2M4.5 19.5l2-2M17.5 6.5l2-2" />
    </symbol>
  <symbol id="ic-inbox" viewBox="0 0 24 24">
      <path d="M4 4h16v11H4z" />
      <path d="M4 11h5l1.5 2h3L15 11h5" />
    </symbol>
  <symbol id="ic-scissors" viewBox="0 0 24 24">
      <circle cx="6" cy="6" r="2.2" />
      <circle cx="6" cy="18" r="2.2" />
      <path d="M7.8 7.6L20 19M7.8 16.4L20 5" />
    </symbol>
  <symbol id="ic-search-doc" viewBox="0 0 24 24">
      <path d="M6 2h8l4 4v16H6z" />
      <circle cx="13" cy="13" r="3" />
      <path d="M15.2 15.2L18 18" />
    </symbol>
  <symbol id="ic-tag" viewBox="0 0 24 24">
      <path d="M11 3H4v7l10 10 7-7L11 3z" />
      <circle cx="7.5" cy="7.5" r="1.3" />
    </symbol>
  <symbol id="ic-refresh" viewBox="0 0 24 24">
      <path d="M4 12a8 8 0 0114-5.3M20 4v5h-5" />
      <path d="M20 12a8 8 0 01-14 5.3M4 20v-5h5" />
    </symbol>
  <symbol id="ic-arrow-forward" viewBox="0 0 24 24">
      <path d="M4 12h16M14 6l6 6-6 6" />
    </symbol>
  <symbol id="ic-medical" viewBox="0 0 24 24">
      <circle cx="12" cy="12" r="9" />
      <path d="M12 7.5v9M7.5 12h9" />
    </symbol>
  <symbol id="ic-heart" viewBox="0 0 24 24">
      <path d="M12 20s-7-4.4-9-8.8A5 5 0 0112 8a5 5 0 019 3.2C19 15.6 12 20 12 20z" />
    </symbol>
  <symbol id="ic-bank" viewBox="0 0 24 24">
      <path d="M3 10l9-6 9 6" />
      <path d="M5 10v9M10 10v9M14 10v9M19 10v9" />
      <path d="M3 19h18" />
    </symbol>
  <symbol id="ic-cap" viewBox="0 0 24 24">
      <path d="M12 3L2 8l10 5 10-5-10-5z" />
      <path d="M6 10.5V16c0 1.5 3 3 6 3s6-1.5 6-3v-5.5" />
    </symbol>
  <symbol id="ic-truck" viewBox="0 0 24 24">
      <path d="M3 7h11v9H3z" />
      <path d="M14 10h4l3 3v3h-7z" />
      <circle cx="7" cy="18" r="1.6" />
      <circle cx="17" cy="18" r="1.6" />
    </symbol>
  <symbol id="ic-house" viewBox="0 0 24 24">
      <path d="M3 11l9-7 9 7" />
      <path d="M5 10v10h14V10" />
    </symbol>
  <symbol id="ic-people" viewBox="0 0 24 24">
      <circle cx="9" cy="8" r="3" />
      <path d="M3 20c0-3.5 2.7-6 6-6s6 2.5 6 6" />
      <circle cx="17.5" cy="9" r="2.2" />
      <path d="M14.8 20c.3-2.5 1.7-4.4 3.7-5.1" />
    </symbol>
  <symbol id="ic-med-letter" viewBox="0 0 24 24">
      <path d="M3 6h18v13H3z" />
      <path d="M3 6l9 7 9-7" />
      <path d="M12 14v4M10 16h4" />
    </symbol>
  <symbol id="ic-clipboard" viewBox="0 0 24 24">
      <path d="M8 4h8v3H8z" />
      <path d="M6 6h12v15H6z" />
      <path d="M9 12.5l2 2 4-4.5" />
    </symbol>
  <symbol id="ic-bankmini" viewBox="0 0 24 24">
      <path d="M4 10l8-6 8 6" />
      <path d="M6 10v9h12v-9" />
      <path d="M10 19v-5h4v5" />
    </symbol>
  <symbol id="ic-coin-doc" viewBox="0 0 24 24">
      <path d="M6 2h9l4 4v16H6z" />
      <circle cx="15" cy="15.5" r="3" />
      <path d="M15 14v3" />
    </symbol>
  <symbol id="ic-percent-doc" viewBox="0 0 24 24">
      <path d="M6 2h9l4 4v16H6z" />
      <circle cx="11" cy="13" r="1.2" />
      <circle cx="16" cy="18" r="1.2" />
      <path d="M17 12l-6 7" />
    </symbol>
  <symbol id="ic-key-house" viewBox="0 0 24 24">
      <path d="M3 11l7-6 7 6" />
      <path d="M5 10v9h9v-9" />
      <circle cx="18" cy="17" r="1.6" />
      <path d="M18 18.6V21" />
    </symbol>
  <symbol id="ic-utility" viewBox="0 0 24 24">
      <circle cx="12" cy="9" r="5" />
      <path d="M10 17h4M10.5 19.5h3" />
    </symbol>
  <symbol id="ic-warning" viewBox="0 0 24 24">
      <path d="M12 3l10 18H2z" />
      <path d="M12 10v5M12 17.5v.1" />
    </symbol>
  <symbol id="ic-gauge" viewBox="0 0 24 24">
      <path d="M4 16a8 8 0 1116 0" />
      <path d="M12 16l4-5" />
      <circle cx="12" cy="16" r="1.2" />
    </symbol>
  <symbol id="ic-ticket" viewBox="0 0 24 24">
      <path d="M3 6h18v12H3z" />
      <circle cx="3" cy="12" r="2" />
      <circle cx="21" cy="12" r="2" />
      <path d="M9 6v12" stroke-dasharray="2 3" />
    </symbol>
  <symbol id="ic-car" viewBox="0 0 24 24">
      <path d="M3 16l2-6h14l2 6" />
      <path d="M3 16h18v3H3z" />
      <circle cx="7" cy="19" r="1.5" />
      <circle cx="17" cy="19" r="1.5" />
    </symbol>
  <symbol id="ic-chat" viewBox="0 0 24 24">
      <path d="M4 5h16v11h-9l-4 4v-4H4z" />
      <path d="M8 9h8M8 12h5" />
    </symbol>
  <symbol id="ic-pill" viewBox="0 0 24 24">
      <path d="M6 18a5 5 0 010-7l7-7a5 5 0 017 7l-7 7a5 5 0 01-7 0z" />
      <path d="M10.5 9.5l4 4" />
    </symbol>
  <symbol id="ic-med-cross" viewBox="0 0 24 24">
      <path d="M6 2h9l4 4v16H6z" />
      <circle cx="13.5" cy="14.5" r="3.4" />
      <path d="M13.5 12.7v3.6M11.7 14.5h3.6" />
    </symbol>
  <symbol id="ic-magnifier-check" viewBox="0 0 24 24">
      <path d="M6 2h9l4 4v16H6z" />
      <circle cx="12.5" cy="14" r="3" />
      <path d="M11 14l1 1 2-2" />
    </symbol>
  <symbol id="ic-sign" viewBox="0 0 24 24">
      <path d="M6 2h9l4 4v16H6z" />
      <path d="M9 16c1.5-1.5 2.5-1.5 3.5 0s2 1.5 3.5 0" />
    </symbol>
  <symbol id="ic-stamp" viewBox="0 0 24 24">
      <path d="M6 2h9l4 4v16H6z" />
      <path d="M13.5 11.2l1.2 2.3 2.6.4-1.9 1.8.5 2.6-2.4-1.2-2.4 1.2.5-2.6-1.9-1.8 2.6-.4z" />
    </symbol>
  <symbol id="ic-person-doc" viewBox="0 0 24 24">
      <path d="M6 2h9l4 4v16H6z" />
      <circle cx="12" cy="11" r="2.2" />
      <path d="M8.5 17c.5-2.3 2-3.5 3.5-3.5s3 1.2 3.5 3.5" />
    </symbol>
  <symbol id="ic-dots" viewBox="0 0 24 24">
      <circle cx="6" cy="12" r="1.6" />
      <circle cx="12" cy="12" r="1.6" />
      <circle cx="18" cy="12" r="1.6" />
    </symbol>
  <symbol id="ic-grid" viewBox="0 0 24 24">
      <rect x="3" y="3" width="8" height="8" />
      <rect x="13" y="3" width="8" height="8" />
      <rect x="3" y="13" width="8" height="8" />
      <rect x="13" y="13" width="8" height="8" />
    </symbol>
  <symbol id="ic-scan-stack" viewBox="0 0 24 24">
      <path d="M4 6h13M4 10h13M4 14h9" />
      <path d="M17 14l3 3-3 3" />
    </symbol>
  <symbol id="ic-archive" viewBox="0 0 24 24">
      <path d="M3 7h18v4H3z" />
      <path d="M5 11v9h14v-9" />
      <path d="M10 15h4" />
    </symbol>
  <symbol id="ic-workflow" viewBox="0 0 24 24">
      <circle cx="7" cy="7" r="3" />
      <circle cx="17" cy="17" r="3" />
      <path d="M9.5 9.5l5 5" />
      <path d="M14.2 13.8l3 1.2-1.2 3" />
    </symbol>
  <symbol id="ic-star-doc" viewBox="0 0 24 24">
      <path d="M6 2h9l4 4v16H6z" />
      <path d="M12.5 10.5l1.2 2.4 2.6.4-1.9 1.8.4 2.6-2.3-1.2-2.3 1.2.4-2.6-1.9-1.8 2.6-.4z" />
    </symbol>
  <symbol id="ic-bar-chart" viewBox="0 0 24 24">
      <path d="M4 20V10M10 20V4M16 20v-7" />
      <path d="M3 20h18" />
    </symbol>
  <symbol id="ic-chain" viewBox="0 0 24 24">
      <rect x="2" y="7" width="11" height="10" rx="5" />
      <rect x="11" y="7" width="11" height="10" rx="5" />
    </symbol>
  <symbol id="ic-book" viewBox="0 0 24 24">
      <path d="M4 5c3-1.5 6-1.5 8 0v14c-2-1.5-5-1.5-8 0z" />
      <path d="M20 5c-3-1.5-6-1.5-8 0v14c2-1.5 5-1.5 8 0z" />
    </symbol>
  <symbol id="ic-wallet" viewBox="0 0 24 24">
      <rect x="3" y="7" width="18" height="12" rx="2" />
      <path d="M3 11h18" />
      <circle cx="17" cy="15" r="1.3" />
    </symbol>
  <symbol id="ic-folder-open" viewBox="0 0 24 24">
      <path d="M3 7h6l2 2h10v10H3z" />
      <path d="M3 7V5h5l2 2" />
    </symbol>
  <symbol id="ic-flask" viewBox="0 0 24 24">
      <path d="M10 2h4" />
      <path d="M10.5 2v6l-5.2 9.6A2 2 0 007.1 21h9.8a2 2 0 001.8-3.4L13.5 8V2" />
      <path d="M7.5 15h9" />
    </symbol>
</svg>
